<?xml version="1.0" encoding="utf-8"?>
<!-- Generator: Adobe Illustrator 22.1.0, SVG Export Plug-In . SVG Version: 6.00 Build 0)  -->
<svg version="1.1" id="Layer_1" xmlns="http://www.w3.org/2000/svg" xmlns:xlink="http://www.w3.org/1999/xlink" x="0px" y="0px"
	 viewBox="0 0 587 1107" style="enable-background:new 0 0 587 1107;" xml:space="preserve">
<g>
	<path style="fill:#FCEE21;" d="M360,97c-48.9,3.2-178-12-178,54S52,371,66,456s128,39,174,87s2,208-44,230S80,907,110,989
		s284,50,230-160s-78-206-57-280s117-108,99-272s204-44,190-164S406,94,360,97z"/>
	<path style="fill:none;stroke:#0000FF;stroke-width:8;stroke-miterlimit:10;" d="M93,661c0,0-94-38-76-108s174-288,382-86
		S253,701,187,685S93,661,93,661z"/>
	<path style="fill:none;stroke:#0000FF;stroke-width:8;stroke-miterlimit:10;" d="M266.2,922.5c0,0,18.9-40.8,49.5-31.3
		c30.6,9.5,123.8,83.3,29.8,171.1s-100.5-69.7-92-98.6C262.1,934.7,266.2,922.5,266.2,922.5z"/>
	<path style="fill:none;stroke:#0000FF;stroke-width:8;stroke-miterlimit:10;" d="M316,121c50-91-36-93-36-93S166-34,150,74
		s30,316,91,214S316,121,316,121z"/>
</g>
</svg>
