<?xml version="1.0" encoding="utf-8"?>
<!-- Generator: Adobe Illustrator 22.1.0, SVG Export Plug-In . SVG Version: 6.00 Build 0)  -->
<svg version="1.1" id="Layer_1" xmlns="http://www.w3.org/2000/svg" xmlns:xlink="http://www.w3.org/1999/xlink" x="0px" y="0px"
	 viewBox="0 0 1200 750" style="enable-background:new 0 0 1200 750;" xml:space="preserve">
<style type="text/css">
	.st0{fill:#000068;}
	.st1{fill:#FC0D4C;}
	.st2{fill:none;stroke:#FDFFEE;stroke-width:2.6963;stroke-linecap:round;stroke-miterlimit:10;}
	.st3{fill:none;stroke:#FDFFEE;stroke-width:4.8533;stroke-linecap:round;stroke-miterlimit:10;}
</style>
<g>
	<path class="st0" d="M1057.5,465.6c-11.6,20.3-8,49.9-8.6,72.3c-1,36-4,72.3-16.2,106.4c-21.3,59.3-66.7,99.4-130.9,101.5
		c-118,3.9-234.3-92.5-225.8-214.5c3.8-54.8,29.2-105.3,73.2-138.7c42.3-32.1,101-35.9,135.8-78c27.9-33.8,46.5-74.3,78.4-105.2
		c39.5-38.2,89.7-45.7,140-23.4c55,24.3,73.6,80.1,60.2,136.2c-7.6,32.2-24.1,60.7-47.2,84.2
		C1097.2,425.9,1071.3,441.5,1057.5,465.6z"/>
</g>
<g>
	<path class="st0" d="M101.8,291.6C28.4,333.9,9.4,428.7,58.3,496.9c25.2,35,61.1,63.2,105,67.3c42.8,3.9,85.9-11,126.3-23.1
		c73.2-21.9,139.4-29.6,214.1-8.9c82.7,23,157.4,64.5,241.3,20c146.7-77.8,195.6-288.6,99.7-422.4c-77.6-108.3-232.3-163-351.8-96.5
		c-37.2,20.7-69.3,49.8-95.3,83.4c-30.6,39.7-52.9,79.3-97,106.2C239.1,260.4,162.8,256.3,101.8,291.6z"/>
</g>
<g>
	<path class="st1" d="M890.3,613.5c65.8-29.8,126-69.8,135-148.1c8.6-74.6-46.2-157.7-115.5-184.1c-71.8-27.3-134.2,27.3-194.8,57.3
		c-22.6,11.2-51,22.8-72.3,3c-17.6-16.4-23.7-42.1-32.6-63.6c-24.3-58.7-86.9-99.8-151.7-84.9c-66,15.2-120,72.6-158.2,125.3
		c-39.9,55-67.2,114.8-66.3,183.7c1.2,86.3,50.5,151.8,123.6,193.8c90,51.8,186.1,57.2,285.8,32.1
		C733.2,705.4,807.2,651.1,890.3,613.5z"/>
</g>
<g>
	<path class="st2" d="M762.3,639.3c0-5.5,5.2-10,11.7-10c6.5,0,11.7,5,11.7,10c0,11.7-23.4,16.7-23.4,30.1h23.4"/>
	<path class="st2" d="M814.1,657.7c0,6.5-5.2,11.7-11.7,11.7c-6.5,0-11.7-5.2-11.7-11.7V641c0-6.5,5.2-11.7,11.7-11.7
		c6.5,0,11.7,5.2,11.7,11.7V657.7z"/>
	<polyline class="st2" points="820.2,639.3 830.2,629.3 830.2,669.5 	"/>
	<g>
		<ellipse class="st2" cx="850.4" cy="639.3" rx="11.7" ry="10"/>
		<ellipse class="st2" cx="850.4" cy="659.4" rx="11.7" ry="10"/>
	</g>
	<g>
		<line class="st2" x1="817.8" y1="577.3" x2="827.8" y2="577.3"/>
		<line class="st2" x1="817.8" y1="617.1" x2="827.8" y2="617.1"/>
		<line class="st2" x1="822.8" y1="617.1" x2="822.8" y2="577.3"/>
	</g>
	<g>
		<line class="st2" x1="705.1" y1="577.3" x2="715" y2="577.3"/>
		<line class="st2" x1="705.1" y1="617.1" x2="715" y2="617.1"/>
		<line class="st2" x1="710.1" y1="617.1" x2="710.1" y2="577.3"/>
	</g>
	<g>
		<line class="st2" x1="672.2" y1="577.3" x2="672.2" y2="617.1"/>
		<line class="st2" x1="697.1" y1="577.3" x2="697.1" y2="617.1"/>
		<line class="st2" x1="672.2" y1="607.2" x2="697.1" y2="607.2"/>
	</g>
	<g>
		<line class="st2" x1="723.2" y1="577.3" x2="723.2" y2="617.1"/>
		<line class="st2" x1="748.1" y1="577.3" x2="748.1" y2="617.1"/>
		<line class="st2" x1="723.2" y1="577.3" x2="748.1" y2="607.2"/>
	</g>
	<g>
		<line class="st2" x1="835.5" y1="577.3" x2="835.5" y2="617.1"/>
		<line class="st2" x1="860.4" y1="577.3" x2="860.4" y2="617.1"/>
		<line class="st2" x1="835.5" y1="577.3" x2="860.4" y2="607.2"/>
	</g>
	<g>
		<polyline class="st2" points="594.6,577.3 564.7,577.3 564.7,617.1 594.6,617.1 		"/>
		<line class="st2" x1="584.6" y1="607.6" x2="564.7" y2="607.6"/>
	</g>
	<g>
		<path class="st2" d="M768.2,607.2h23.9c-3.4,6-9.9,10-17.2,10c-11,0-19.9-8.9-19.9-19.9c0-11,8.9-19.9,19.9-19.9
			c7.4,0,13.8,4,17.2,10"/>
	</g>
	<path class="st2" d="M663.9,607.2c-3.4,6-9.9,10-17.2,10c-11,0-19.9-8.9-19.9-19.9c0-11,8.9-19.9,19.9-19.9c7.4,0,13.8,4,17.2,10"
		/>
	<g>
		<g>
			<line class="st2" x1="531.4" y1="577.3" x2="531.4" y2="617.1"/>
			<line class="st2" x1="557.9" y1="577.3" x2="531.4" y2="607.2"/>
			<line class="st2" x1="557.9" y1="617.1" x2="539.2" y2="598.4"/>
		</g>
	</g>
	<g>
		<line class="st2" x1="600.9" y1="577.3" x2="625.8" y2="577.3"/>
		<line class="st2" x1="613.3" y1="617.1" x2="613.3" y2="577.3"/>
	</g>
	<path class="st2" d="M499.8,607.2c1.2,5.6,6.5,10,12.4,10c6.9,0,12.4-5.6,12.4-12.4s-5.3-11.9-13.3-12.4c-3.3-0.2-8.1-1.7-8.3-6.6
		c-0.2-5,3.3-8.2,8.3-8.3c4.1-0.1,10,3.3,8.3,10"/>
	<path class="st2" d="M575.5,669.2c11,0,19.9-8.9,19.9-19.9c0-11-8.9-19.9-19.9-19.9h-10v39.8H575.5z"/>
	<g>
		<polyline class="st2" points="487.3,669.2 507.3,629.3 527.2,669.2 		"/>
		<line class="st2" x1="492.3" y1="659.2" x2="522.2" y2="659.2"/>
	</g>
	<g>
		<polyline class="st2" points="640.2,669.2 660.1,629.3 680,669.2 		"/>
		<line class="st2" x1="645.2" y1="659.2" x2="675.1" y2="659.2"/>
	</g>
	<g>
		<line class="st2" x1="457.2" y1="629.3" x2="457.2" y2="669.2"/>
		<line class="st2" x1="482.1" y1="629.3" x2="482.1" y2="669.2"/>
		<line class="st2" x1="457.2" y1="659.2" x2="482.1" y2="659.2"/>
	</g>
	<g>
		<polyline class="st2" points="746.6,629.3 716.7,629.3 716.7,669.2 746.6,669.2 		"/>
		<line class="st2" x1="736.7" y1="659.6" x2="716.7" y2="659.6"/>
	</g>
	<g>
		<path class="st2" d="M685.6,669.2v-39.8h10c8.2,0,14.9,6.7,14.9,14.9c0,8.2-6.7,14.9-14.9,14.9h-10"/>
		<line class="st2" x1="700.5" y1="669.2" x2="695.6" y2="659.2"/>
	</g>
	<g>
		<path class="st2" d="M533.6,669.2v-39.8h10c8.2,0,14.9,6.7,14.9,14.9c0,8.2-6.7,14.9-14.9,14.9h-10"/>
		<line class="st2" x1="548.5" y1="669.2" x2="543.5" y2="659.2"/>
	</g>
	<g>
		<polyline class="st2" points="648.5,629.3 628.6,669.2 617,649.2 		"/>
		<polyline class="st2" points="595.4,629.3 615.3,669.2 626.9,649.2 		"/>
	</g>
	<g>
		<g>
			<line class="st2" x1="419.8" y1="145.9" x2="419.8" y2="185.2"/>
			<line class="st2" x1="444.3" y1="145.9" x2="444.3" y2="185.2"/>
			<line class="st2" x1="419.8" y1="175.4" x2="444.3" y2="175.4"/>
		</g>
		<g>
			<polyline class="st2" points="480.3,145.9 450.9,145.9 450.9,185.2 480.3,185.2 			"/>
			<line class="st2" x1="470.5" y1="175.8" x2="450.9" y2="175.8"/>
		</g>
		<g>
			<line class="st2" x1="390.4" y1="145.9" x2="414.9" y2="145.9"/>
			<line class="st2" x1="402.6" y1="185.2" x2="402.6" y2="145.9"/>
		</g>
	</g>
	<g>
		<g>
			<polyline class="st2" points="449.6,341.2 493,254.3 536.5,341.2 			"/>
			<line class="st2" x1="460.4" y1="319.5" x2="525.6" y2="319.5"/>
		</g>
		<g>
			<line class="st2" x1="695.8" y1="254.3" x2="717.5" y2="254.3"/>
			<line class="st2" x1="695.8" y1="341.2" x2="717.5" y2="341.2"/>
			<line class="st2" x1="706.7" y1="341.2" x2="706.7" y2="254.3"/>
		</g>
		<g>
			<line class="st2" x1="630.6" y1="254.3" x2="630.6" y2="341.2"/>
			<line class="st2" x1="685" y1="254.3" x2="685" y2="341.2"/>
			<line class="st2" x1="630.6" y1="319.5" x2="685" y2="319.5"/>
		</g>
		<g>
			<line class="st2" x1="728.4" y1="254.3" x2="728.4" y2="341.2"/>
			<line class="st2" x1="782.7" y1="254.3" x2="782.7" y2="341.2"/>
			<line class="st2" x1="728.4" y1="254.3" x2="782.7" y2="319.5"/>
		</g>
		<g>
			<polyline class="st2" points="858.8,254.3 793.6,254.3 793.6,341.2 858.8,341.2 			"/>
			<line class="st2" x1="837.1" y1="320.5" x2="793.6" y2="320.5"/>
		</g>
		<path class="st2" d="M617.6,319.5c-7.5,13-21.5,21.7-37.6,21.7c-24,0-43.5-19.5-43.5-43.5c0-24,19.5-43.5,43.5-43.5
			c16.1,0,30.1,8.7,37.6,21.7"/>
		<polyline class="st2" points="369.9,341.2 369.9,254.3 406.1,319.5 442.3,254.3 442.3,341.2 		"/>
	</g>
	<g>
		<g>
			<line class="st2" x1="493.5" y1="146.7" x2="493.5" y2="240.9"/>
			<line class="st2" x1="552.4" y1="146.7" x2="552.4" y2="240.9"/>
			<line class="st2" x1="493.5" y1="146.7" x2="552.4" y2="217.4"/>
		</g>
		<g>
			<polyline class="st2" points="634.8,146.7 564.2,146.7 564.2,240.9 634.8,240.9 			"/>
			<line class="st2" x1="611.3" y1="218.4" x2="564.2" y2="218.4"/>
		</g>
		<g>
			<polyline class="st2" points="769.1,146.7 722,240.9 694.5,193.8 			"/>
			<polyline class="st2" points="643.5,146.7 690.6,240.9 718,193.8 			"/>
		</g>
	</g>
	<g>
		<g>
			<polyline class="st3" points="859.4,355.5 703.2,355.5 703.2,563.9 859.4,563.9 			"/>
			<line class="st3" x1="807.4" y1="514.1" x2="703.2" y2="514.1"/>
		</g>
		<path class="st3" d="M546.9,511.8h124.9c-18,31.1-51.7,52.1-90.2,52.1c-57.5,0-104.2-46.6-104.2-104.2s46.6-104.2,104.2-104.2
			c38.6,0,72.2,21,90.2,52.1"/>
		<g>
			<polyline class="st3" points="265.7,563.9 369.9,355.5 474.1,563.9 			"/>
			<line class="st3" x1="291.8" y1="511.8" x2="448" y2="511.8"/>
		</g>
	</g>
</g>
</svg>
