<?xml version="1.0" encoding="utf-8"?>
<!-- Generator: Adobe Illustrator 22.1.0, SVG Export Plug-In . SVG Version: 6.00 Build 0)  -->
<svg version="1.1" xmlns="http://www.w3.org/2000/svg" xmlns:xlink="http://www.w3.org/1999/xlink" x="0px" y="0px"
	 viewBox="0 0 1200 750" style="enable-background:new 0 0 1200 750;" xml:space="preserve">
<style type="text/css">
	.st0{fill:#000068;}
	.st1{fill:#FC0D4C;}
	.st2{fill:none;stroke:#FDFFEE;stroke-width:2.5;stroke-linecap:square;stroke-miterlimit:10;}
	.st3{fill:none;stroke:#FDFFEE;stroke-width:4;stroke-linecap:square;stroke-miterlimit:10;}
	.st4{fill:none;stroke:#FDFFEE;stroke-width:4;stroke-linecap:round;stroke-miterlimit:10;}
	.st5{fill:none;stroke:#FDFFEE;stroke-width:10;stroke-linecap:square;stroke-miterlimit:10;}
	.st6{fill:none;stroke:#FDFFEE;stroke-width:10;stroke-miterlimit:10;}
</style>
<g id="Layer_1">
	<g>
		<path class="st0" d="M1057.5,465.6c-11.6,20.3-8,49.9-8.6,72.3c-1,36-4,72.3-16.2,106.4c-21.3,59.3-66.7,99.4-130.9,101.5
			c-118,3.9-234.3-92.5-225.8-214.5c3.8-54.8,29.2-105.3,73.2-138.7c42.3-32.1,101-35.9,135.8-78c27.9-33.8,46.5-74.3,78.4-105.2
			c39.5-38.2,89.7-45.7,140-23.4c55,24.3,73.6,80.1,60.2,136.2c-7.6,32.2-24.1,60.7-47.2,84.2
			C1097.2,425.9,1071.3,441.5,1057.5,465.6z"/>
	</g>
	<g>
		<path class="st0" d="M101.8,291.6C28.4,333.9,9.4,428.7,58.3,496.9c25.2,35,61.1,63.2,105,67.3c42.8,3.9,85.9-11,126.3-23.1
			c73.2-21.9,139.4-29.6,214.1-8.9c82.7,23,157.4,64.5,241.3,20c146.7-77.8,195.6-288.6,99.7-422.4
			c-77.6-108.3-232.3-163-351.8-96.5c-37.2,20.7-69.3,49.8-95.3,83.4c-30.6,39.7-52.9,79.3-97,106.2
			C239.1,260.4,162.8,256.3,101.8,291.6z"/>
	</g>
	<g>
		<path class="st1" d="M890.3,613.5c65.8-29.8,126-69.8,135-148.1c8.6-74.6-46.2-157.7-115.5-184.1
			c-71.8-27.3-134.2,27.3-194.8,57.3c-22.6,11.2-51,22.8-72.3,3c-17.6-16.4-23.7-42.1-32.6-63.6c-24.3-58.7-86.9-99.8-151.7-84.9
			c-66,15.2-120,72.6-158.2,125.3c-39.9,55-67.2,114.8-66.3,183.7c1.2,86.3,50.5,151.8,123.6,193.8c90,51.8,186.1,57.2,285.8,32.1
			C733.2,705.4,807.2,651.1,890.3,613.5z"/>
	</g>
</g>
<g id="Layer_2">
	<g>
		<g>
			<line class="st2" x1="423.4" y1="149" x2="423.4" y2="182.9"/>
			<line class="st2" x1="444.6" y1="149" x2="444.6" y2="182.9"/>
			<line class="st2" x1="423.4" y1="174.4" x2="444.6" y2="174.4"/>
		</g>
		<g>
			<polyline class="st2" points="475.6,149 450.2,149 450.2,182.9 475.6,182.9 			"/>
			<line class="st2" x1="467.1" y1="174.8" x2="450.2" y2="174.8"/>
		</g>
		<g>
			<line class="st2" x1="398" y1="149" x2="419.2" y2="149"/>
			<line class="st2" x1="408.6" y1="182.9" x2="408.6" y2="149"/>
		</g>
	</g>
	<g>
		<polyline class="st3" points="449.6,343.2 493,256.3 536.5,343.2 		"/>
		<line class="st4" x1="460.4" y1="321.5" x2="525.6" y2="321.5"/>
	</g>
	<g>
		<line class="st3" x1="695.8" y1="256.3" x2="717.5" y2="256.3"/>
		<line class="st3" x1="695.8" y1="343.2" x2="717.5" y2="343.2"/>
		<line class="st3" x1="706.7" y1="343.2" x2="706.7" y2="256.3"/>
	</g>
	<g>
		<line class="st3" x1="630.6" y1="256.3" x2="630.6" y2="343.2"/>
		<line class="st3" x1="685" y1="256.3" x2="685" y2="343.2"/>
		<line class="st3" x1="630.6" y1="321.5" x2="685" y2="321.5"/>
	</g>
	<g>
		<line class="st3" x1="782.7" y1="256.3" x2="782.7" y2="343.2"/>
		<polyline class="st3" points="781.7,321.5 728.4,259.3 728.4,343.2 		"/>
	</g>
	<g>
		<polyline class="st3" points="858.8,256.3 793.6,256.3 793.6,343.2 858.8,343.2 		"/>
		<line class="st3" x1="837.1" y1="322.5" x2="793.6" y2="322.5"/>
	</g>
	<path class="st3" d="M617.6,321.5c-7.5,13-21.5,21.7-37.6,21.7c-24,0-43.5-19.5-43.5-43.5c0-24,19.5-43.5,43.5-43.5
		c16.1,0,30.1,8.7,37.6,21.7"/>
	<polyline class="st3" points="369.9,343.2 369.9,256.3 406.1,321.5 442.3,256.3 442.3,343.2 	"/>
	<g>
		<polyline class="st5" points="859.4,361.5 703.2,361.5 703.2,569.9 859.4,569.9 		"/>
		<line class="st5" x1="807.4" y1="520.1" x2="703.2" y2="520.1"/>
	</g>
	<path class="st5" d="M546.9,517.8h124.9c-18,31.1-51.7,52.1-90.2,52.1c-57.5,0-104.2-46.6-104.2-104.2s46.6-104.2,104.2-104.2
		c38.6,0,72.2,21,90.2,52.1"/>
	<g>
		<polyline class="st5" points="265.7,569.9 369.9,361.5 474.1,569.9 		"/>
		<line class="st6" x1="291.8" y1="517.8" x2="448" y2="517.8"/>
	</g>
	<g>
		<g>
			<polyline class="st3" points="769,146.8 722.3,240.2 695,193.5 			"/>
			<polyline class="st3" points="644.4,146.8 691.2,240.2 718.4,193.5 			"/>
		</g>
		<g>
			<line class="st3" x1="551.4" y1="147.8" x2="551.4" y2="241.2"/>
			<polyline class="st3" points="550.3,217.9 493,151.1 493,241.2 			"/>
		</g>
		<g>
			<polyline class="st3" points="633.1,147.8 563.1,147.8 563.1,241.2 633.1,241.2 			"/>
			<line class="st3" x1="609.8" y1="218.9" x2="563.1" y2="218.9"/>
		</g>
	</g>
</g>
</svg>
